# Original RIFT service heat exchanger. Meters, Y up, outward CCW winding.
o RIFT_Service_Unit
v -0.65 0 -0.4
v 0.65 0 -0.4
v 0.8 0.15 -0.4
v 0.8 0.65 -0.4
v 0.65 0.8 -0.4
v -0.65 0.8 -0.4
v -0.8 0.65 -0.4
v -0.8 0.15 -0.4
v -0.65 0 0.4
v 0.65 0 0.4
v 0.8 0.15 0.4
v 0.8 0.65 0.4
v 0.65 0.8 0.4
v -0.65 0.8 0.4
v -0.8 0.65 0.4
v -0.8 0.15 0.4
v -0.58 0.20 -0.415
v 0.58 0.20 -0.415
v 0.58 0.60 -0.415
v -0.58 0.60 -0.415
v -0.58 0.20 0.415
v 0.58 0.20 0.415
v 0.58 0.60 0.415
v -0.58 0.60 0.415
vt 0 0
vt 1 0
vt 1 1
vt 0 1
usemtl shell
f 2/4 10/3 9/2 1/1
f 3/4 11/3 10/2 2/1
f 4/4 12/3 11/2 3/1
f 5/4 13/3 12/2 4/1
f 6/4 14/3 13/2 5/1
f 7/4 15/3 14/2 6/1
f 8/4 16/3 15/2 7/1
f 1/4 9/3 16/2 8/1
f 3 2 1
f 4 3 1
f 5 4 1
f 6 5 1
f 7 6 1
f 8 7 1
f 15 16 9
f 14 15 9
f 13 14 9
f 12 13 9
f 11 12 9
f 10 11 9
usemtl grille
f 20/4 19/3 18/2 17/1
f 22/2 23/3 24/4 21/1
