v -0.0436569 0.0545196 0.5279061
v -0.0436569 0.025294501 0.5279065
v -0.0436569 0.025294501 0.5888365
v -0.0436569 0.0545196 0.5888365
v -0.0436569 0.025294501 0.8039362
v -0.0436569 0.0545196 0.8039362
v 0.0436569 0.025294501 0.5279065
v 0.0436569 0.0545196 0.5279061
v 0.0436569 0.0545196 0.5888365
v 0.0436569 0.025294501 0.5888365
v -0.0436569 -0.037670992 0.5279065
v 0.0436569 -0.037670992 0.5279065
v 0.0436569 -0.037670992 0.5888365
v -0.0436569 -0.037670992 0.5888365
v 0.0436569 0.0545196 0.8039362
v 0.0436569 0.025294501 0.8039362
v 0.0436569 -0.037670992 0.8039362
v -0.0436569 -0.037670992 0.8039362
v 0.037156697 0.069102004 0.8039362
v 0.0214648 0.0751425 0.8039362
v -0.0214648 0.0751425 0.8039362
v -0.037156697 0.069102004 0.8039362
v 0.0214648 0.0751425 0.5888365
v -0.0214648 0.0751425 0.5888365
v -0.037156697 0.069102004 0.5888365
v -0.037156697 0.069102004 0.5279061
v -0.0214648 0.0751425 0.5279061
v 0.037156697 0.069102004 0.5279061
v 0.037156697 0.069102004 0.5888365
v 0.0214648 0.0751425 0.5279061
v -0.0548891 0.048453 0.077548936
v -0.0548891 0.018140405 0.079728
v -0.0548891 0.011482198 0.5725601
v -0.0548891 0.017652297 0.5726508
v -0.0548891 0.03943171 0.5627463
v -0.0548891 0.048453 0.5381935
v 0.0548891 0.011482198 0.5725601
v 0.0548891 0.017652297 0.5726508
v 0.0548891 -0.06437069 0.08446692
v 0.0548891 0.018140405 0.079728
v 0.0548891 -0.038217295 0.5714391
v 0.0548891 0.048453 0.077548936
v 0.0548891 0.048453 0.5381935
v 0.0548891 0.03943171 0.5627463
v -0.0548891 -0.06437069 0.08446692
v -0.0548891 -0.038217295 0.5714391
v -0.046805497 -0.0718737 0.0848977
v 0.046805497 -0.0718737 0.0848977
v 0.046805497 -0.045752693 0.57126904
v -0.046805497 -0.045752693 0.57126904
v -0.0548891 0.018140405 0.01852936
v -0.0548891 -0.067617 0.024021376
v 0.0548891 -0.067617 0.024021376
v 0.046805497 -0.0751173 0.024501458
v -0.046805497 -0.0751173 0.024501458
v 0.0548891 0.018140405 0.01852936
v -0.0686077 0.011664909 0.03216744
v -0.0686077 0.011664909 0.53041977
v -0.0686077 0.044619605 0.53041977
v -0.0686077 0.044619605 0.04590922
v 0.0500801 0.05201701 0.53041977
v 0.0500801 0.05201701 0.05735634
v 0.0500801 0.06459811 0.076825075
v 0.0500801 0.06459811 0.53041977
v -0.0500801 0.05201701 0.05735634
v -0.0500801 0.05201701 0.53041977
v -0.0500801 0.06459811 0.53041977
v -0.0500801 0.06459811 0.076825075
v 0.0336028 0.07757431 0.08075004
v -0.0336028 0.07757431 0.08075004
v -0.0336028 0.07757431 0.53041977
v 0.0336028 0.07757431 0.53041977
v 0.0521304 0.044619605 0.029753778
v -0.0521304 0.044619605 0.029753778
v -0.0336028 0.05201701 0.0412009
v 0.0336028 0.05201701 0.0412009
v 0.068607 0.011664909 0.53041977
v 0.068607 0.044619605 0.53041977
v 0.068607 0.011664909 0.03216744
v 0.068607 0.044619605 0.04590922
v 0.0521304 0.011664909 0.01601234
v -0.0521304 0.011664909 0.01601234
usemtl Black
f 1 2 3 4
f 4 3 5 6
f 7 8 9 10
f 11 12 13 14
f 2 11 14 3
f 10 9 15 16
f 14 13 17 18
f 3 14 18 5
f 16 15 19 20 21 22 6 5
f 17 16 5 18
f 12 7 10 13
f 23 24 21 20
f 13 10 16 17
f 1 4 25 26
f 26 25 24 27
f 9 8 28 29
f 29 28 30 23
f 23 20 19 29
f 29 19 15 9
f 4 6 22 25
f 25 22 21 24
f 30 27 24 23
usemtl DarkMetal
f 31 32 33 34 35 36
f 37 38 34 33
f 39 40 37 41
f 40 42 43 44 38 37
f 32 45 46 33
f 47 48 49 50
f 51 52 45 32
f 49 41 37 33 46 50
f 40 32 31 42
f 53 54 55 52 51 56
f 53 56 40 39
f 56 51 32 40
f 48 54 53 39
f 47 50 46 45
f 49 48 39 41
f 55 47 45 52
f 55 54 48 47
f 43 36 35 44
f 44 35 34 38
f 42 31 36 43
usemtl Metal
f 57 58 59 60
f 61 62 63 64
f 65 66 67 68
f 69 70 71 72
f 66 61 64 72 71 67
f 73 74 75 76
f 58 77 78 59
f 77 79 80 78
f 81 79 77 58 57 82
f 76 75 70 69
f 59 78 61 66
f 78 80 62 61
f 60 59 66 65
f 69 72 64 63
f 71 70 68 67
f 76 69 63 62
f 65 68 70 75
f 81 73 80 79
f 57 60 74 82
f 73 76 62 80
f 60 65 75 74
f 81 82 74 73
