v -0.0436569 0.0545196 0.5279061
v -0.0436569 0.025294501 0.5279065
v -0.0436569 0.025294501 0.5888365
v -0.0436569 0.0545196 0.5888365
v -0.0436569 0.025294501 0.8039362
v -0.0436569 0.0545196 0.8039362
v 0.0436569 0.025294501 0.5279065
v 0.0436569 0.0545196 0.5279061
v 0.0436569 0.0545196 0.5888365
v 0.0436569 0.025294501 0.5888365
v -0.0436569 -0.037670992 0.5279065
v 0.0436569 -0.037670992 0.5279065
v 0.0436569 -0.037670992 0.5888365
v -0.0436569 -0.037670992 0.5888365
v 0.0436569 0.0545196 0.8039362
v 0.0436569 0.025294501 0.8039362
v 0.0436569 -0.037670992 0.8039362
v -0.0436569 -0.037670992 0.8039362
v 0.037156697 0.069102004 0.8039362
v 0.0214648 0.0751425 0.8039362
v -0.0214648 0.0751425 0.8039362
v -0.037156697 0.069102004 0.8039362
v 0.0214648 0.0751425 0.5888365
v -0.0214648 0.0751425 0.5888365
v -0.037156697 0.069102004 0.5888365
v -0.037156697 0.069102004 0.5279061
v -0.0214648 0.0751425 0.5279061
v 0.037156697 0.069102004 0.5279061
v 0.037156697 0.069102004 0.5888365
v 0.0214648 0.0751425 0.5279061
v -0.0548891 0.048453 0.077548936
v -0.0548891 0.018140405 0.079728
v -0.0548891 0.011482198 0.5725601
v -0.0548891 0.017652297 0.5726508
v -0.0548891 0.03943171 0.5627463
v -0.0548891 0.048453 0.5381935
v 0.0548891 0.011482198 0.5725601
v 0.0548891 0.017652297 0.5726508
v 0.0548891 -0.06437069 0.08446692
v 0.0548891 0.018140405 0.079728
v 0.0548891 -0.038217295 0.5714391
v 0.0548891 0.048453 0.077548936
v 0.0548891 0.048453 0.5381935
v 0.0548891 0.03943171 0.5627463
v -0.0548891 -0.06437069 0.08446692
v -0.0548891 -0.038217295 0.5714391
v -0.046805497 -0.0718737 0.0848977
v 0.046805497 -0.0718737 0.0848977
v 0.046805497 -0.045752693 0.57126904
v -0.046805497 -0.045752693 0.57126904
v -0.0548891 0.018140405 0.01852936
v -0.0548891 -0.067617 0.024021376
v 0.0548891 -0.067617 0.024021376
v 0.046805497 -0.0751173 0.024501458
v -0.046805497 -0.0751173 0.024501458
v 0.0548891 0.018140405 0.01852936
v -0.0686077 0.011664909 0.03216744
v -0.0686077 0.011664909 0.53041977
v -0.0686077 0.044619605 0.53041977
v -0.0686077 0.044619605 0.04590922
v 0.0500801 0.05201701 0.53041977
v 0.0500801 0.05201701 0.05735634
v 0.0500801 0.06459811 0.076825075
v 0.0500801 0.06459811 0.53041977
v -0.0500801 0.05201701 0.05735634
v -0.0500801 0.05201701 0.53041977
v -0.0500801 0.06459811 0.53041977
v -0.0500801 0.06459811 0.076825075
v 0.0336028 0.07757431 0.08075004
v -0.0336028 0.07757431 0.08075004
v -0.0336028 0.07757431 0.53041977
v 0.0336028 0.07757431 0.53041977
v 0.0521304 0.044619605 0.029753778
v -0.0521304 0.044619605 0.029753778
v -0.0336028 0.05201701 0.0412009
v 0.0336028 0.05201701 0.0412009
v 0.068607 0.011664909 0.53041977
v 0.068607 0.044619605 0.53041977
v 0.068607 0.011664909 0.03216744
v 0.068607 0.044619605 0.04590922
v 0.0521304 0.011664909 0.01601234
v -0.0521304 0.011664909 0.01601234
v -0.0419279 -0.041217893 0.59082246
v 0.0419279 -0.041217893 0.59082246
v 0.0419279 -0.0544143 0.62321967
v -0.0419279 -0.0544143 0.62321967
v -0.0419279 -0.04278599 0.688635
v 0.0419279 -0.04278599 0.688635
v 0.0419279 -0.0413343 0.7964738
v -0.0419279 -0.0413343 0.7964738
v -0.0585781 0.028841706 0.688635
v -0.0585781 -0.027312899 0.688635
v -0.0585781 -0.025745096 0.81400895
v -0.0585781 0.01019041 0.81400895
v -0.0585781 0.023378707 0.80781794
v -0.0585781 0.0288414 0.7928712
v -0.053701896 -0.0382539 0.688635
v -0.053701896 -0.0511032 0.641699
v -0.0419279 -0.055634998 0.641699
v 0.0537012 -0.0382539 0.688635
v 0.0537012 -0.0511032 0.641699
v 0.0585781 -0.04016219 0.641699
v 0.0585781 -0.027312899 0.688635
v -0.0585781 0.028841706 0.641699
v -0.0585781 -0.04016219 0.641699
v 0.0585781 0.028841706 0.688635
v 0.0585781 0.028841706 0.641699
v 0.0585781 -0.025745096 0.81400895
v 0.0585781 0.01019041 0.81400895
v 0.0585781 0.0288414 0.7928712
v 0.0585781 0.023378707 0.80781794
v -0.0585781 0.028841706 0.61196023
v -0.0585781 0.023378707 0.5970135
v -0.0585781 0.01019041 0.59082246
v -0.0585781 -0.025745096 0.59082246
v -0.0585781 -0.03894149 0.62321967
v -0.0585781 0.028841706 0.62321967
v 0.0585781 -0.025745096 0.59082246
v 0.0585781 0.01019041 0.59082246
v 0.0585781 0.023378707 0.5970135
v 0.0585781 0.028841706 0.61196023
v 0.0585781 0.028841706 0.62321967
v 0.0585781 -0.03894149 0.62321967
v -0.0585781 0.044019002 0.6881896
v -0.0585781 0.03589141 0.6920051
v -0.0585781 0.03252481 0.70121634
v -0.0585781 0.03252481 0.8010553
v -0.0585781 0.03589141 0.81026655
v -0.0585781 0.044019002 0.8140821
v -0.0585781 0.06087871 0.8140821
v -0.0585781 0.0666807 0.6881896
v 0.0585781 0.044019002 0.8140821
v 0.0585781 0.06087871 0.8140821
v 0.052140202 0.07532731 0.8140821
v 0.0365981 0.08131201 0.8140821
v -0.036598798 0.08131201 0.8140821
v -0.0521409 0.07532731 0.8140821
v 0.0585781 0.03589141 0.81026655
v 0.0585781 0.03252481 0.8010553
v 0.0585781 0.03252481 0.70121634
v 0.0585781 0.03589141 0.6920051
v 0.0585781 0.044019002 0.6881896
v 0.0585781 0.0666807 0.6881896
v 0.0365981 0.08711401 0.6881896
v -0.036598798 0.08711401 0.6881896
v 0.0537012 -0.036719996 0.80887294
v -0.053701896 -0.036719996 0.80887294
v 0.0419279 -0.055634998 0.641699
v 0.0537012 -0.036686093 0.59082246
v 0.0537012 -0.0498825 0.62321967
v -0.053701896 -0.036686093 0.59082246
v -0.053701896 -0.0498825 0.62321967
v -0.0521409 0.08112931 0.6881896
v 0.052140202 0.08112931 0.6881896
usemtl Black
f 1 2 3 4
f 4 3 5 6
f 7 8 9 10
f 11 12 13 14
f 2 11 14 3
f 10 9 15 16
f 14 13 17 18
f 3 14 18 5
f 16 15 19 20 21 22 6 5
f 17 16 5 18
f 12 7 10 13
f 23 24 21 20
f 13 10 16 17
f 1 4 25 26
f 26 25 24 27
f 9 8 28 29
f 29 28 30 23
f 23 20 19 29
f 29 19 15 9
f 4 6 22 25
f 25 22 21 24
f 30 27 24 23
usemtl DarkMetal
f 31 32 33 34 35 36
f 37 38 34 33
f 39 40 37 41
f 40 42 43 44 38 37
f 32 45 46 33
f 47 48 49 50
f 51 52 45 32
f 49 41 37 33 46 50
f 40 32 31 42
f 53 54 55 52 51 56
f 53 56 40 39
f 56 51 32 40
f 48 54 53 39
f 47 50 46 45
f 49 48 39 41
f 55 47 45 52
f 55 54 48 47
f 43 36 35 44
f 44 35 34 38
f 42 31 36 43
usemtl Metal
f 57 58 59 60
f 61 62 63 64
f 65 66 67 68
f 69 70 71 72
f 66 61 64 72 71 67
f 73 74 75 76
f 58 77 78 59
f 77 79 80 78
f 81 79 77 58 57 82
f 76 75 70 69
f 59 78 61 66
f 78 80 62 61
f 60 59 66 65
f 69 72 64 63
f 71 70 68 67
f 76 69 63 62
f 65 68 70 75
f 81 73 80 79
f 57 60 74 82
f 73 76 62 80
f 60 65 75 74
f 81 82 74 73
usemtl DarkWood
f 83 84 85 86
f 87 88 89 90
f 91 92 93 94 95 96
f 97 98 99 87
f 100 101 102 103
f 104 105 92 91
f 91 106 107 104
f 108 109 94 93
f 96 110 106 91
f 103 106 110 111 109 108
f 112 113 114 115 116 117
f 118 119 120 121 122 123
f 124 125 126 127 128 129 130 131
f 129 132 133 134 135 136 137 130
f 132 138 139 140 141 142 143 133
f 136 135 144 145
f 90 89 146 147
f 147 146 108 93
f 99 148 88 87
f 88 148 101 100
f 92 105 98 97
f 85 84 149 150
f 150 149 118 123
f 116 115 151 152
f 152 151 83 86
f 89 88 100 146
f 146 100 103 108
f 93 92 97 147
f 147 97 87 90
f 102 107 106 103
f 110 96 95 111
f 111 95 94 109
f 119 114 113 120
f 120 113 112 121
f 118 149 84 83 151 115 114 119
f 131 130 137 153
f 153 137 136 145
f 144 135 134 154
f 154 134 133 143
f 127 126 140 139
f 122 117 104 107
f 101 148 85 150
f 102 101 150 123
f 98 105 116 152
f 99 98 152 86
f 107 102 123 122
f 148 99 86 85
f 105 104 117 116
f 117 122 121 112
f 140 126 125 141
f 141 125 124 142
f 132 129 128 138
f 138 128 127 139
f 142 124 131 153 145 144 154 143
